<?xml version="1.0" encoding="utf-8"?>
<!-- Generator: Adobe Illustrator 20.1.0, SVG Export Plug-In . SVG Version: 6.00 Build 0)  -->
<!DOCTYPE svg PUBLIC "-//W3C//DTD SVG 1.1//EN" "http://www.w3.org/Graphics/SVG/1.1/DTD/svg11.dtd">
<svg version="1.1" id="Ebene_1" xmlns="http://www.w3.org/2000/svg" xmlns:xlink="http://www.w3.org/1999/xlink" x="0px" y="0px"
	 viewBox="0 0 162 162" style="enable-background:new 0 0 162 162;" xml:space="preserve">
<style type="text/css">
	.st0{fill:#2D2D2D;}
</style>
<title>Group</title>
<desc>Created with Sketch.</desc>
<g id="Page-1">
	<g id="Group" transform="translate(3.000000, 2.000000)">
		<path id="_x2B_15_x2019_" class="st0" d="M44.5,91.9V83h8.8v-4.8h-8.8v-8.9h-4.9v8.9h-8.8V83h8.8v8.9H44.5z M73.8,58.4l-14.3,6
			v5.7l8.9-3.8V94h5.4V58.4z M104.1,59H84.5l-0.3,18.7h8.1c6.2,0,8,2.8,8,5.8c0,3-2.1,5.9-6.7,5.9c-3.1,0-6.5-1.5-8.6-3.9L81.4,89
			c3,3.7,7.1,5.6,12.2,5.6c6.6,0,12.3-4,12.3-11.6c0-5.5-3.8-10.5-12-10.5h-4.6l0.2-8.5h14.6V59z M113.3,58l-1.4,13.6h4.5l3-13.6
			H113.3z"/>
	</g>
</g>
</svg>
