<?xml version="1.0" encoding="utf-8"?>
<!-- Generator: Adobe Illustrator 20.1.0, SVG Export Plug-In . SVG Version: 6.00 Build 0)  -->
<!DOCTYPE svg PUBLIC "-//W3C//DTD SVG 1.1//EN" "http://www.w3.org/Graphics/SVG/1.1/DTD/svg11.dtd">
<svg version="1.1" id="Ebene_1" xmlns="http://www.w3.org/2000/svg" xmlns:xlink="http://www.w3.org/1999/xlink" x="0px" y="0px"
	 viewBox="0 0 162 162" style="enable-background:new 0 0 162 162;" xml:space="preserve">
<style type="text/css">
	.st0{fill:#2D2D2D;}
</style>
<title>Group 4</title>
<desc>Created with Sketch.</desc>
<g id="Page-1">
	<g id="Group-4" transform="translate(3.000000, 2.000000)">
		<path id="_x2B_30_x2019_" class="st0" d="M37.4,91.9V83h8.8v-4.8h-8.8v-8.9h-4.8v8.9h-8.8V83h8.8v8.9H37.4z M64.1,58.4
			c-5.5,0-9.3,2.4-11.3,5.5l3.9,3.3c1.3-2,3.8-3.8,7.1-3.8c3.6,0,6.6,1.9,6.6,5.2c0,3.5-3.1,5.2-6.8,5.2h-4.2v5h4.2
			c4.2,0,7.6,1.8,7.6,5.4c0,3.6-3,5.3-6.8,5.3c-3.2,0-6.4-1.3-8.4-3.6l-3.5,3.6c2.6,3.2,6.9,5,12,5c6.4,0,12.4-3.3,12.4-10.1
			c0-3.8-2.5-6.7-6.1-8.1c3.2-1.5,5.3-4.2,5.3-8C76,62.4,71.2,58.4,64.1,58.4L64.1,58.4z M97.9,58.4c-8.2,0-14.8,6.8-14.8,18.1
			c0,11.3,6.6,18.1,14.8,18.1c8.1,0,14.8-6.8,14.8-18.1C112.7,65.2,106.1,58.4,97.9,58.4L97.9,58.4z M97.9,63.6
			c5.1,0,9.1,4.5,9.1,12.9s-4.1,12.9-9.1,12.9c-5,0-9.1-4.5-9.1-12.9S92.9,63.6,97.9,63.6L97.9,63.6z M120.4,58l-1.4,13.6h4.5
			l3-13.6H120.4z"/>
	</g>
</g>
</svg>
