<?xml version="1.0" encoding="UTF-8"?>
<svg width="35px" height="28px" viewBox="0 0 35 28" version="1.1" xmlns="http://www.w3.org/2000/svg" xmlns:xlink="http://www.w3.org/1999/xlink">
    <!-- Generator: Sketch 40.3 (33839) - http://www.bohemiancoding.com/sketch -->
    <title>Page 1</title>
    <desc>Created with Sketch.</desc>
    <defs></defs>
    <g id="Page-1" stroke="none" stroke-width="1" fill="none" fill-rule="evenodd">
        <g transform="translate(17.500000, 14.000000) scale(-1, 1) translate(-17.500000, -14.000000) " fill="#17C0C5">
            <path d="M33.3195489,14.7327935 L33.3195489,13.2672065 L19.3195489,26.2672065 C18.9148382,26.6430093 18.8914037,27.2757404 19.2672065,27.6804511 C19.6430093,28.0851618 20.2757404,28.1085963 20.6804511,27.7327935 L34.6804511,14.7327935 C35.1065163,14.3371615 35.1065163,13.6628385 34.6804511,13.2672065 L20.6804511,0.267206508 C20.2757404,-0.108596257 19.6430093,-0.0851617696 19.2672065,0.319548901 C18.8914037,0.724259571 18.9148382,1.35699073 19.3195489,1.73279349 L33.3195489,14.7327935 Z" id="Stroke-1"></path>
            <path d="M1.59936306,13 C1.04707831,13 0.599363064,13.4477153 0.599363064,14 C0.599363064,14.5522847 1.04707831,15 1.59936306,15 L33,15 C33.5522847,15 34,14.5522847 34,14 C34,13.4477153 33.5522847,13 33,13 L1.59936306,13 Z" id="Stroke-3"></path>
        </g>
    </g>
</svg>