<?xml version="1.0" encoding="utf-8"?>
<!-- Generator: Adobe Illustrator 15.0.0, SVG Export Plug-In . SVG Version: 6.00 Build 0)  -->
<!DOCTYPE svg PUBLIC "-//W3C//DTD SVG 1.1//EN" "http://www.w3.org/Graphics/SVG/1.1/DTD/svg11.dtd">
<svg version="1.1" id="Layer_1" xmlns="http://www.w3.org/2000/svg" xmlns:xlink="http://www.w3.org/1999/xlink" x="0px" y="0px"
	 width="608.828px" height="482.932px" viewBox="15.586 -21.932 608.828 482.932"
	 enable-background="new 15.586 -21.932 608.828 482.932" xml:space="preserve">
<g id="Layer_2">
	<polyline fill="#FFFFFF" points="279.5,-18.176 359.5,-18.176 354.95,329.936 286.95,329.936 	"/>
</g>
<g>
	<g>
		<path fill="#FFFFFF" d="M249.811,129.177c-56.761,13.246-107.56,42.187-147.552,81.983l-1.072,1.072l42.801,42.8l1.072-1.07
			c29.29-29.116,65.777-50.988,106.522-62.689L249.811,129.177z M246.306,6.329C157.496,21.736,77.944,64.482,16.658,125.553
			l-1.072,1.071l42.801,42.801l1.071-1.072c50.651-50.443,115.81-86.322,188.596-100.751L246.306,6.329z M187.866,296.755
			l-1.072,1.071l42.813,42.818l1.071-1.07c7.373-7.29,15.632-13.682,24.592-19.009l-1.886-66.104
			C228.624,263.897,206.352,278.418,187.866,296.755z M320.359,363.588c-26.9,0-48.708,21.806-48.708,48.706
			c0,26.899,21.807,48.706,48.708,48.706c26.899,0,48.705-21.807,48.705-48.706C369.064,385.394,347.258,363.588,320.359,363.588z
			 M389.282,128.958l-1.734,62.059c41.095,11.638,77.889,33.622,107.387,62.945l1.071,1.07l42.801-42.8l-1.065-1.072
			C497.54,171.146,446.412,142.105,389.282,128.958z M623.343,125.553C561.831,64.258,481.919,21.422,392.715,6.16l-1.712,61.255
			c73.167,14.307,138.669,50.283,189.539,100.943l1.071,1.071l42.801-42.801L623.343,125.553z M385.783,254.147l-1.844,65.954
			c9.267,5.42,17.796,11.97,25.387,19.473l1.07,1.07l42.808-42.818l-1.07-1.071C433.441,278.213,410.878,263.572,385.783,254.147z"
			/>
	</g>
</g>
</svg>
